<?xml version="1.0" standalone="no"?>
<!DOCTYPE svg PUBLIC "-//W3C//DTD SVG 20010904//EN"
 "http://www.w3.org/TR/2001/REC-SVG-20010904/DTD/svg10.dtd">
<svg version="1.0" xmlns="http://www.w3.org/2000/svg"
 width="260.000000pt" height="260.000000pt" viewBox="0 0 260.000000 260.000000"
 preserveAspectRatio="xMidYMid meet">
<metadata>
Created by potrace 1.14, written by Peter Selinger 2001-2017
</metadata>
<g transform="translate(0.000000,260.000000) scale(0.100000,-0.100000)"
fill="#000000" stroke="none">
<path d="M5 2571 c-2 -5 3 -17 13 -27 81 -90 157 -185 168 -211 12 -27 14
-188 14 -928 0 -831 -1 -898 -17 -923 -10 -15 -55 -70 -100 -123 -46 -53 -83
-99 -83 -103 0 -3 217 -6 482 -6 l483 0 -85 77 c-46 43 -109 101 -140 130
l-55 51 -3 301 -3 301 53 0 c93 0 262 8 303 15 226 35 431 172 518 346 62 125
79 210 80 389 1 179 -14 263 -69 377 -76 159 -230 270 -444 320 -53 12 -164
16 -588 18 -287 2 -524 0 -527 -4z m885 -73 c34 -8 88 -50 118 -92 62 -86 104
-212 120 -360 13 -124 6 -378 -13 -466 -3 -14 -7 -36 -10 -48 -17 -91 -70
-206 -122 -263 -56 -62 -103 -81 -210 -87 l-93 -4 0 655 c0 614 1 657 18 667
15 9 148 8 192 -2z"/>
<path d="M2116 789 c-68 -16 -155 -70 -202 -124 -75 -89 -105 -185 -92 -299
16 -138 94 -248 217 -309 61 -30 73 -32 171 -32 93 0 112 3 162 27 80 37 149
105 189 186 32 63 34 74 34 167 0 91 -3 106 -31 166 -50 104 -138 182 -240
212 -58 16 -153 19 -208 6z"/>
</g>
</svg>
